<svg width="1885" height="500" viewBox="0 0 1885 500" fill="none" xmlns="http://www.w3.org/2000/svg">
<path d="M177.084 16.8271L21.6348 172.276L177.084 327.725L332.533 172.276L177.084 16.8271Z" fill="url(#paint0_linear_2704_319)"/>
<path d="M332.541 172.273L177.092 327.723L332.541 483.172L487.99 327.723L332.541 172.273Z" fill="url(#paint1_linear_2704_319)"/>
<path d="M177.087 16.8284L332.533 172.274L487.986 16.8284H177.087Z" fill="url(#paint2_linear_2704_319)"/>
<path d="M177.087 327.727L21.6348 483.173H332.533L177.087 327.727Z" fill="url(#paint3_linear_2704_319)"/>
<path d="M177.087 327.727L21.6348 483.173H332.533L177.087 327.727Z" fill="url(#paint4_linear_2704_319)"/>
<path d="M1250.63 207.053C1237.91 207.053 1227.56 210.396 1219.59 217.076C1214.16 221.632 1210.08 227.086 1207.34 233.439L1205.04 209.966H1167.86V369.352H1207.31V291.761C1207.31 276.245 1211.4 264.656 1219.59 257.008C1227.78 249.359 1239.1 245.528 1253.54 245.528H1268.09V208.997C1264.86 208.138 1261.84 207.599 1259.04 207.38C1256.23 207.169 1253.43 207.053 1250.63 207.053Z" fill="white"/>
<path d="M876.252 204.788C864.612 204.788 854.32 207.105 845.375 211.738C836.43 216.37 829.474 222.569 824.52 230.327V128.814H784.755V369.353H824.199V282.059C824.199 274.089 825.765 266.973 828.89 260.717C832.008 254.467 836.539 249.564 842.468 246.01C848.39 242.455 855.449 240.677 863.643 240.677C870.323 240.677 876.143 242.134 881.103 245.041C886.063 247.954 889.939 252.317 892.743 258.137C895.541 263.957 896.946 271.394 896.946 280.448V369.359H936.39V271.073C936.39 250.598 931.269 234.434 921.035 222.575C910.793 210.724 895.868 204.795 876.258 204.795L876.252 204.788Z" fill="white"/>
<path d="M692.938 236.795L655.759 228.389C645.845 226.021 638.568 222.408 633.935 217.557C629.296 212.706 626.986 206.078 626.986 197.672C626.986 187.758 630.81 179.942 638.466 174.231C646.114 168.52 656.298 165.665 669.016 165.665C680.656 165.665 689.922 168.527 696.82 174.231C703.718 179.942 707.375 187.867 707.812 197.993H749.193C748.763 183.767 745.26 171.485 738.683 161.141C732.106 150.791 722.949 142.821 711.206 137.213C699.457 131.611 685.61 128.807 669.658 128.807C653.705 128.807 638.459 131.772 625.85 137.694C613.241 143.63 603.379 151.869 596.269 162.431C589.153 172.993 585.604 185.172 585.604 198.962C585.604 217.282 590.776 232.098 601.12 243.417C611.464 254.73 626.659 262.545 646.705 266.857L684.211 275.263C693.907 277.201 700.907 280.596 705.226 285.447C709.538 290.298 711.694 296.817 711.694 305.005C711.694 314.489 707.651 322.087 699.572 327.797C691.487 333.508 680.547 336.364 666.757 336.364C652.968 336.364 643.201 333.508 635.559 327.797C627.904 322.087 623.97 314.271 623.758 304.357H582.377C582.807 318.371 586.522 330.544 593.529 340.894C600.53 351.238 610.283 359.272 622.789 364.976C635.289 370.681 649.836 373.543 666.436 373.543C683.896 373.543 699.136 370.578 712.188 364.649C725.227 358.726 735.301 350.263 742.417 339.271C749.533 328.279 753.088 315.567 753.088 301.123C753.088 283.451 748.128 269.392 738.214 258.933C728.3 248.48 713.208 241.101 692.95 236.788L692.938 236.795Z" fill="white"/>
<path d="M1095.28 215.78C1082.46 208.664 1067.75 205.109 1051.15 205.109C1034.56 205.109 1020.12 208.664 1007.19 215.78C994.257 222.896 984.119 232.752 976.797 245.361C969.469 257.97 965.805 272.575 965.805 289.169C965.805 305.762 969.469 320.367 976.797 332.976C984.119 345.585 994.257 355.447 1007.19 362.557C1020.12 369.673 1034.77 373.228 1051.15 373.228C1067.54 373.228 1082.46 369.673 1095.28 362.557C1108.1 355.441 1118.18 345.585 1125.51 332.976C1132.84 320.367 1136.5 305.769 1136.5 289.169C1136.5 272.568 1132.83 257.97 1125.51 245.361C1118.18 232.752 1108.1 222.89 1095.28 215.78ZM1091.24 314.714C1087.36 322.042 1081.97 327.759 1075.08 331.846C1068.18 335.94 1060.2 337.987 1051.15 337.987C1042.11 337.987 1034.18 335.94 1027.39 331.846C1020.6 327.753 1015.21 322.042 1011.23 314.714C1007.24 307.386 1005.25 298.871 1005.25 289.175C1005.25 279.479 1007.24 270.695 1011.23 263.469C1015.21 256.251 1020.6 250.591 1027.39 246.497C1034.18 242.403 1042.1 240.356 1051.15 240.356C1060.21 240.356 1068.18 242.41 1075.08 246.497C1081.97 250.591 1087.36 256.251 1091.24 263.469C1095.12 270.695 1097.06 279.261 1097.06 289.175C1097.06 299.089 1095.12 307.392 1091.24 314.714Z" fill="white"/>
<path d="M1861.01 209.639H1830.3V159.852H1790.85V209.639H1760.14V242.615H1790.85V369.346H1830.3V242.615H1861.01V209.639Z" fill="white"/>
<path d="M1355.69 159.852H1316.25V209.639H1285.54V242.615H1316.25V369.346H1355.69V242.615H1386.41V209.639H1355.69V159.852Z" fill="white"/>
<path d="M1695.81 293.372C1695.81 308.464 1692.79 319.719 1686.75 327.156C1680.72 334.593 1671.44 338.315 1658.95 338.315C1647.96 338.315 1639.55 334.972 1633.73 328.292C1627.91 321.612 1625.01 310.729 1625.01 295.637V209.639H1585.56V309.542C1585.56 328.94 1590.73 344.456 1601.08 356.096C1611.42 367.736 1625.76 373.556 1644.08 373.556C1654.85 373.556 1664.98 371.181 1674.47 366.439C1683.95 361.704 1691.06 355.557 1695.81 348.01L1698.71 369.353H1735.25V209.639H1695.8V293.372H1695.81Z" fill="white"/>
<path d="M1505.22 331.198C1498.65 335.94 1490.4 338.315 1480.49 338.315C1472.09 338.315 1464.81 336.325 1458.67 332.334C1452.53 328.349 1447.84 322.69 1444.6 315.362C1441.37 308.034 1439.75 299.307 1439.75 289.175C1439.75 279.043 1441.47 270.316 1444.92 262.988C1448.37 255.66 1453.28 250.007 1459.63 246.016C1465.98 242.031 1473.26 240.035 1481.46 240.035C1490.94 240.035 1498.86 242.358 1505.22 246.985C1511.58 251.624 1515.94 258.464 1518.31 267.518H1557.76C1555.6 248.339 1547.57 233.086 1533.67 221.773C1519.78 210.461 1501.94 204.801 1480.17 204.801C1464.43 204.801 1450.58 208.414 1438.62 215.633C1426.66 222.858 1417.28 232.823 1410.49 245.541C1403.7 258.259 1400.31 272.812 1400.31 289.188C1400.31 305.563 1403.59 321.034 1410.17 333.643C1416.74 346.252 1426.07 356.063 1438.14 363.064C1450.21 370.065 1464.32 373.568 1480.49 373.568C1494.49 373.568 1506.99 370.925 1517.99 365.65C1528.98 360.369 1537.98 353.041 1544.99 343.666C1551.99 334.291 1556.35 323.357 1558.08 310.851H1518.32C1516.16 319.693 1511.8 326.482 1505.22 331.218V331.198Z" fill="white"/>
<defs>
<linearGradient id="paint0_linear_2704_319" x1="253.688" y1="248.119" x2="106.988" y2="102.882" gradientUnits="userSpaceOnUse">
<stop stop-color="#3B95C9"/>
<stop offset="1" stop-color="#59B1E3"/>
</linearGradient>
<linearGradient id="paint1_linear_2704_319" x1="265.845" y1="257.596" x2="408.143" y2="407.228" gradientUnits="userSpaceOnUse">
<stop stop-color="#59B1E3"/>
<stop offset="1" stop-color="#9BD0F0"/>
</linearGradient>
<linearGradient id="paint2_linear_2704_319" x1="461.747" y1="-16.1089" x2="170.831" y2="139.459" gradientUnits="userSpaceOnUse">
<stop stop-color="#59B1E3"/>
<stop offset="1" stop-color="#9BD0F0"/>
</linearGradient>
<linearGradient id="paint3_linear_2704_319" x1="341.69" y1="352.714" x2="50.8182" y2="529.265" gradientUnits="userSpaceOnUse">
<stop stop-color="#59B1E3"/>
<stop offset="1" stop-color="#9BD0F0"/>
</linearGradient>
<linearGradient id="paint4_linear_2704_319" x1="253.793" y1="405.145" x2="168.707" y2="491.701" gradientUnits="userSpaceOnUse">
<stop stop-color="#3B95C9"/>
<stop offset="1" stop-color="#9BD0F0" stop-opacity="0"/>
</linearGradient>
</defs>
</svg>
